<?xml version="1.0" encoding="UTF-8" standalone="no"?>
<svg
   xmlns:dc="http://purl.org/dc/elements/1.1/"
   xmlns:cc="http://creativecommons.org/ns#"
   xmlns:rdf="http://www.w3.org/1999/02/22-rdf-syntax-ns#"
   xmlns:svg="http://www.w3.org/2000/svg"
   xmlns="http://www.w3.org/2000/svg"
   xmlns:xlink="http://www.w3.org/1999/xlink"
   xmlns:sodipodi="http://sodipodi.sourceforge.net/DTD/sodipodi-0.dtd"
   xmlns:inkscape="http://www.inkscape.org/namespaces/inkscape"
   version="1.1"
   id="svg10"
   width="10240"
   height="1280"
   viewBox="0 0 10240 1280"
   sodipodi:docname="GHZ_Level_Collision_Test.svg"
   inkscape:version="1.0.2-2 (e86c870879, 2021-01-15)">
  <metadata
     id="metadata16">
    <rdf:RDF>
      <cc:Work
         rdf:about="">
        <dc:format>image/svg+xml</dc:format>
        <dc:type
           rdf:resource="http://purl.org/dc/dcmitype/StillImage" />
        <dc:title></dc:title>
      </cc:Work>
    </rdf:RDF>
  </metadata>
  <defs
     id="defs14" />
  <sodipodi:namedview
     pagecolor="#ffffff"
     bordercolor="#666666"
     borderopacity="1"
     objecttolerance="10"
     gridtolerance="10"
     guidetolerance="10"
     inkscape:pageopacity="0"
     inkscape:pageshadow="2"
     inkscape:window-width="3840"
     inkscape:window-height="2066"
     id="namedview12"
     showgrid="false"
     inkscape:zoom="1.5744174"
     inkscape:cx="6948.5048"
     inkscape:cy="750.89925"
     inkscape:window-x="-11"
     inkscape:window-y="-11"
     inkscape:window-maximized="1"
     inkscape:current-layer="g18" />
  <g
     inkscape:groupmode="layer"
     inkscape:label="Image"
     id="g18">
    <image
       sodipodi:absref="E:\OneDrive - Hogeschool West-Vlaanderen\Sonic The Hedgehog - Sprite Sheets\GHZ_Level_Texture_Col.png"
       xlink:href="../../../../Sonic%20The%20Hedgehog%20-%20Sprite%20Sheets/GHZ_Level_Texture_Col.png"
       id="image20"
       preserveAspectRatio="none"
       height="1280"
       width="10240" />
    <path
       style="fill:#000000"
       d="m 4864,384.52954 h -62.5 l 31.25,-0.27901 31.25,-0.27902 31.25,0.27902 31.25,0.27901 z"
       id="path68" />
    <path
       style="fill:#000000"
       d="m 5504,512.51496 h -128.5 l 64.25,-0.26483 64.25,-0.26483 64.25,0.26483 64.25,0.26483 z"
       id="path66" />
    <path
       style="fill:#000000"
       d="m 4000,529 h 15 V 513.5 498 h -15 -15 v 15.5 15.5 z"
       id="path64" />
    <path
       style="fill:#000000"
       d="m 3910.5299,534.89593 -14.0299,-0.10407 -20.6774,-2.64593 -20.6775,-2.64593 -0.7314,-0.74222 -0.7315,-0.74221 -7.0911,0.44842 -7.0911,0.44841 6.5,-0.95309 6.5,-0.95309 2,0.93331 2,0.93331 21.5009,2.56358 21.501,2.56358 h 12.5289 12.5289 l 12.4702,-1.54474 12.4701,-1.54474 3.5,0.58948 3.5,0.58948 12.4701,-1.54474 L 3981.4403,529 h 1.2798 1.2799 v -16 -16 h 16 16 v 15.75 15.75 l 7.2522,-0.13415 7.2523,-0.13414 -7.5,0.75344 -7.5,0.75344 -17.0299,0.13071 -17.0298,0.1307 -12.4702,1.54474 -12.4701,1.54474 -3.5,-0.58948 -3.5,-0.58948 -12.4701,1.54474 -12.4702,1.54474 -14.0298,-0.10407 z"
       id="path62" />
    <path
       style="fill:#000000"
       d="M 6859.75,606.9205 6911,607 V 368.43873 129.87745 l -4.25,0.558 -4.25,0.55799 -16.8711,2.069 -16.8711,2.069 -16.1289,-0.37376 -16.1289,-0.37376 -18.4937,-2.27176 -18.4937,-2.27177 -1.0063,-0.75582 -1.0063,-0.75582 -13.5,0.19792 -13.5,0.19792 -1.5,0.57066 -1.5,0.57067 -22,2.58226 -22,2.58225 -4.4348,-0.0152 -4.4348,-0.0152 -21.0652,-2.5333 -21.0652,-2.53331 -2.1591,-0.90383 -2.159,-0.90382 -5.591,0.57703 -5.5909,0.57704 v 110.7456 110.7456 l 27.25,0.4846 27.25,0.4846 8.6356,1.61507 8.6356,1.61506 7.9745,2.82194 7.9744,2.82193 7.39,4.22921 7.3899,4.22921 6.3433,5.37037 6.3433,5.37037 5.38,6.34331 5.3799,6.34332 4.5447,8 4.5448,8 3.19,9.5 3.1901,9.5 -0.01,12.5 -0.01,12.5 -2.8189,8.5 -2.8189,8.5 -2.8145,5.5 -2.8146,5.5 -5.6166,6.5 -5.6167,6.5 -4.6534,5.40831 -4.6535,5.4083 -2.4537,3.5917 -2.4538,3.59169 -3.0941,6.5 -3.0941,6.5 v 19.5 19.5 l 2.7878,5.95352 2.7879,5.95352 3.3786,5.04648 3.3786,5.04648 4.3336,4.05772 4.3335,4.05772 4,2.64299 4,2.64299 5.7086,2.60366 5.7087,2.60365 6.2913,1.36614 6.2914,1.36613 51.25,0.0795 z"
       id="path60" />
    <path
       style="fill:#000000"
       d="m 6860.25,607.9205 -51.75,-0.0795 -6.2914,-1.36613 -6.2913,-1.36614 -5.7087,-2.60365 -5.7086,-2.60366 -4,-2.6418 -4,-2.64181 -4.8316,-4.5589 -4.8317,-4.55891 -3.3805,-5.04648 -3.3805,-5.04648 -2.7879,-5.95352 L 6754.5,563.5 V 544 524.5 l 3.0941,-6.5 3.0941,-6.5 2.4538,-3.59169 2.4537,-3.5917 4.6535,-5.4083 4.6534,-5.40831 5.6167,-6.5 5.6166,-6.5 2.8146,-5.5 2.8145,-5.5 2.8189,-8.5 2.8189,-8.5 0.01,-12.5 0.01,-12.5 -3.1901,-9.5 -3.19,-9.5 -4.5448,-8 -4.5447,-8 -5.2233,-6.12773 -5.2232,-6.12774 -5.9607,-5.06446 -5.9606,-5.06447 -7.4293,-4.25069 -7.4293,-4.2507 -7.9744,-2.82193 -7.9745,-2.82194 -8.6356,-1.617 -8.6356,-1.617 -27.75,-0.48135 -27.75,-0.48135 V 240.88682 130 l -1.75,0.004 -1.75,0.004 -19.5,2.49168 -19.5,2.49168 -12.8861,0.004 -12.8862,0.004 -21.6073,-2.57958 -21.6073,-2.57958 -1.0065,-0.75643 -1.0066,-0.75643 -14,0.22172 -14,0.22172 -1.5,0.54436 -1.5,0.54436 -9.5,1.11095 -9.5,1.11096 -11.5,1.42778 -11.5,1.42779 -6.3753,0.0312 -6.3753,0.0312 -19.6247,-2.5145 -19.6247,-2.5145 -2.9301,-0.96662 -2.9301,-0.96662 -6.5699,0.94303 -6.5699,0.94303 -21.0965,2.5547 -21.0966,2.5547 -16.4034,-0.40441 -16.4035,-0.40442 -17.5,-2.17812 -17.5,-2.17813 -1.5,-0.57974 -1.5,-0.57973 -13.5,-0.13003 -13.5,-0.13003 -2,0.7521 -2,0.75209 -20.6267,2.5236 -20.6267,2.5236 -5.8733,-0.0241 -5.8733,-0.0241 -22.5,-2.97462 -22.5,-2.97463 -37.459,0.041 -37.4589,0.041 0.4995,-0.49956 0.4996,-0.49955 36.9594,-0.042 36.9594,-0.042 22.5,2.97513 22.5,2.97512 5.8733,0.0241 5.8733,0.0241 20.6267,-2.5236 20.6267,-2.5236 2,-0.75209 2,-0.7521 13.5,0.13003 13.5,0.13003 1.5,0.57973 1.5,0.57974 17.5,2.17813 17.5,2.17812 16.4035,0.40442 16.4034,0.40441 21.0966,-2.5547 21.0965,-2.5547 6.5699,-0.94303 6.5699,-0.94303 2.9301,0.96662 2.9301,0.96662 19.6247,2.5145 19.6247,2.5145 6.3753,-0.0312 6.3753,-0.0312 11.5,-1.42779 11.5,-1.42778 9.5,-1.11096 9.5,-1.11095 1.5,-0.54436 1.5,-0.54436 14,-0.22172 14,-0.22172 1.0066,0.75643 1.0065,0.75643 21.6073,2.57958 21.6073,2.57958 12.8862,-0.008 12.8861,-0.008 27.2934,-3.45126 27.2935,-3.45125 2.2065,0.92547 2.2066,0.92547 21.0652,2.53331 21.0652,2.5333 4.4348,0.0152 4.4348,0.0152 22,-2.58225 22,-2.58226 1.5,-0.57067 1.5,-0.57066 13.5,-0.19792 13.5,-0.19792 1.0063,0.75582 1.0063,0.75582 18.4937,2.26996 18.4937,2.26997 15.9552,0.38147 15.9552,0.38148 17.5448,-2.11722 17.5448,-2.11723 7,-1.0537 7,-1.0537 26.8443,-0.3976 26.8444,-0.39761 1.3287,0.7469 1.3286,0.74689 -28.173,0.0687 -28.173,0.0687 -2.75,0.70038 -2.75,0.70037 v 238.98095 238.98095 l -51.75,-0.0795 z"
       id="path58" />
    <path
       style="fill:#000000"
       d="m 4056,642 h 15 V 626.5 611 h -15 -15 v 15.5 15.5 z"
       id="path56" />
    <path
       style="fill:#000000"
       d="m 3914.5,672.28389 -11,0.51769 5.5,-0.80189 5.5,-0.8019 5.1725,-0.0989 5.1724,-0.0989 16.8276,-4.00216 16.8275,-4.00215 4,-1.3683 4,-1.36829 4.5,-1.21093 4.5,-1.21092 8,-2.54212 8,-2.54211 3.2227,-2.82196 3.2226,-2.82196 3.7774,-1.04897 3.7773,-1.04898 0.9355,-0.006 0.9356,-0.006 2.3933,-2.25 2.3933,-2.25 h 11.1711 11.1712 l 2.75,0.76905 2.75,0.76905 v -16.01905 -16.01905 h 16 16 v 16.06739 16.06739 l 2.25,-0.6024 2.25,-0.60239 3.5,-1.0286 3.5,-1.0286 6.5,0.95794 6.5,0.95794 -8,-0.0696 -8,-0.0696 -4.75,1.25622 -4.75,1.25623 -18.25,-0.64474 -18.25,-0.64473 -11.1943,-0.18625 -11.1943,-0.18625 -2.0946,2.25 -2.0947,2.25 -1.2111,0.006 -1.211,0.006 -3.7773,1.04898 -3.7774,1.04897 -3.2226,2.82196 -3.2227,2.82196 -8,2.54211 -8,2.54212 -4.5,1.21092 -4.5,1.21093 -4,1.36829 -4,1.3683 -16.5,3.88525 -16.5,3.88526 -11,0.51769 z"
       id="path54" />
    <path
       style="fill:#000000"
       d="m 8832,864.52006 h -94.5 l 47.25,-0.26982 47.25,-0.26982 47.25,0.26982 47.25,0.26982 z"
       id="path52" />
    <path
       style="fill:#000000"
       d="m 640,864.52006 h -94.5 l 47.25,-0.26982 47.25,-0.26982 47.25,0.26982 47.25,0.26982 z"
       id="path50" />
    <path
       style="fill:#000000"
       d="m 7896,783 h 15 V 767.5 752 h -15 -15 v 15.5 15.5 z"
       id="path48" />
    <path
       style="fill:#000000"
       d="m 7680.7498,870.6157 -0.274,38.8843 -0.2379,-6.84819 -0.2379,-6.84818 -6.25,0.70537 -6.25,0.70537 -1.5,1.28598 -1.5,1.28597 -7.2083,0.70414 -7.2083,0.70415 -1.0977,1.32262 -1.0977,1.32262 -7.3131,0.6853 -7.3132,0.6853 -2.3441,-1.25456 -2.3442,-1.25455 -8.5367,0.0491 -8.5367,0.0491 -21,-2.41593 -21,-2.41592 -1.5,-0.80094 -1.5,-0.80093 -13,0.21628 -13,0.21628 -23.5,3.09466 -23.5,3.09466 -5,0.008 -5,0.008 -21,-2.53675 -21,-2.53674 -2.177,-1.09534 -2.1769,-1.09534 -5.6165,0.46577 -5.6165,0.46576 1.2934,-0.82056 1.2935,-0.82056 4.7636,-0.0153 4.7635,-0.0153 1.7365,0.98386 1.7364,0.98386 21,2.51833 21,2.51834 5,-0.008 5,-0.008 23.5,-3.09466 23.5,-3.09466 13,-0.21628 13,-0.21628 1.5,0.80093 1.5,0.80094 21,2.41592 21,2.41593 8.5367,-0.0491 8.5367,-0.0491 2.3442,1.25455 2.3441,1.25456 7.3132,-0.6853 7.3131,-0.6853 1.0977,-1.32262 1.0977,-1.32262 7.2083,-0.70415 7.2083,-0.70414 1.5,-1.28597 1.5,-1.28598 6.25,-0.70537 6.25,-0.70537 -4e-4,-31.65182 -3e-4,-31.65181 32.0003,0.34444 32.0004,0.34444 v -21.54739 -21.54738 l 1.1714,-2.57103 1.1715,-2.57103 2.4125,-0.60552 2.4126,-0.60551 6.413,0.65703 6.413,0.65704 13.5844,-1.69181 13.5843,-1.69182 15.1687,1.61629 15.1686,1.61628 16.5,-0.28634 16.5,-0.28634 6.8441,-1.28472 6.8441,-1.28472 3.6559,0.56693 3.6559,0.56692 2.25,0.66875 2.25,0.66875 v -16.11663 -16.11663 h 16 16 v 15.35018 15.35018 l 12.1411,1.31492 12.1411,1.31492 12.1089,-1.4151 12.1089,-1.4151 10,0.0986 10,0.0986 4,1.14585 4,1.14586 10.8359,0.006 10.8358,0.006 6.1642,1.43926 6.1641,1.43925 6,1.18112 6,1.18112 6,0.84418 6,0.84418 20,1.57706 20,1.57706 26,-1.56999 26,-1.56999 6.5,-0.92875 6.5,-0.92876 9,-1.0823 9,-1.0823 6.7949,-1.59501 6.7948,-1.595 14.7052,0.55886 14.7051,0.55887 6,1.06993 6,1.06994 13.5992,1.50563 13.5992,1.50564 h 12.9644 12.9644 l 11.4364,-1.51607 11.4364,-1.51606 4,0.56955 4,0.56955 16,-2.11877 16,-2.11877 19.2697,-0.47339 19.2697,-0.47339 1.4009,0.78868 1.4009,0.78867 -17.1706,-0.0971 -17.1706,-0.0971 -19.5,2.40667 -19.5,2.40667 -4,-0.57562 -4,-0.57561 -11.4364,1.51606 -11.4364,1.51607 h -12.9644 -12.9644 l -13.5992,-1.50719 -13.5992,-1.5072 -6.5,-1.07596 -6.5,-1.07596 -9.2053,-0.5611 -9.2054,-0.56111 -0.3434,7.89426 -0.3434,7.89426 -0.2013,-7.75 L 8192,785 h -5.0859 -5.0858 l -6.1642,1.46741 -6.1641,1.46742 -9,1.07545 -9,1.07546 -6.5,0.92876 -6.5,0.92875 -26,1.56999 -26,1.56999 -20,-1.57706 -20,-1.57706 -6,-0.84418 -6,-0.84418 -6,-1.18112 -6,-1.18112 -6.1641,-1.43925 L 8010.1717,785 h -5.0438 -5.0438 l -0.3408,7.75 -0.3408,7.75 -0.2013,-7.66467 -0.2012,-7.66468 -6.25,-0.43538 -6.25,-0.43539 -8.7345,-1.32989 -8.7344,-1.32988 -15.1759,1.81132 -15.1758,1.81133 -9.0897,-0.80673 -9.0897,-0.80673 -20.187,0.2839 -20.187,0.28391 -5.0239,-1.28757 -5.0238,-1.28757 -8.2891,1.36825 -8.2892,1.36824 -16,0.25549 -16,0.25548 -15.1686,-1.60898 -15.1687,-1.60899 -13.3313,1.65626 -13.3314,1.65625 -8.0977,-0.62846 -8.0977,-0.62846 -1.6523,2.35898 -1.6523,2.35898 -0.185,27.5275 -0.185,27.52749 -0.3672,-5.25 -0.3673,-5.25 h -26.8082 -26.8082 l -4.6277,-0.6343 -4.6277,-0.63429 z"
       id="path46" />
    <path
       style="fill:#000000"
       d="m 8400,896 h 15 V 880.5 865 h -15 -15 v 15.5 15.5 z"
       id="path44" />
    <path
       style="fill:#000000"
       d="m 8831.3456,968.51564 -15.1544,0.34223 -0.4182,-0.41816 -0.4181,-0.41817 -14.4275,-1.04761 -14.4274,-1.04762 -18,-2.44465 -18,-2.44465 -32,-0.42113 -32,-0.42112 -9,-2.07527 -9,-2.07528 -20.5,-5.46437 -20.5,-5.46438 -5,-1.74602 -5,-1.74603 -5.202,-3.31171 -5.2019,-3.3117 h -0.7704 -0.7703 l -11.5277,-5.65521 -11.5277,-5.65521 -1.5697,-1.33662 -1.5697,-1.33663 -5.4303,-1.86845 -5.4303,-1.86844 -3.8895,-2.63972 L 8560.7209,912 h -2.1599 -2.1598 l -17.9506,-4.57093 -17.9506,-4.57092 -14,-3.52535 -14,-3.52535 -5.4079,0.54031 -5.4078,0.54032 -2.7286,-1.41101 -2.7286,-1.41101 -11.8636,1.50912 -11.8635,1.50912 -10,-0.55343 -10,-0.55344 -34.1454,0.76129 -34.1454,0.76128 -1.9375,1.75376 -1.9375,1.75376 -4.9171,1.63108 -4.9171,1.63108 -3,2.18581 -3,2.1858 -4.5,2.12936 -4.5,2.12936 -28.5,7.15302 -28.5,7.15301 -10.3172,0.95792 -10.3172,0.95792 -1.1828,-0.48199 -1.1828,-0.482 2.5,-0.10604 2.5,-0.10604 9,-0.87178 9,-0.87178 28.5,-7.15112 28.5,-7.15112 4.5,-2.12936 4.5,-2.12936 3,-2.1858 3,-2.18581 4.9171,-1.63108 4.9171,-1.63108 1.9019,-1.72119 1.9019,-1.72118 9.931,-0.39888 9.931,-0.39888 V 879.88369 864 h 16 16 v 15.75 15.75 l 22.7476,-0.0917 22.7477,-0.0917 7.2945,-1.16097 7.2944,-1.16096 2.7977,1.44674 2.7977,1.44673 5.4078,-0.54032 5.4079,-0.54031 14,3.52535 14,3.52535 17.9506,4.57092 17.9506,4.57093 h 2.1598 2.1599 l 3.8896,2.63972 3.8895,2.63972 5.4303,1.86844 5.4303,1.86845 1.5697,1.33663 1.5697,1.33662 11.5277,5.65521 11.5277,5.65521 h 0.7703 0.7704 l 5.2019,3.3117 5.202,3.31171 5,1.74603 5,1.74602 20.5,5.46438 20.5,5.46437 9,2.07528 9,2.07527 32,0.42112 32,0.42113 18,2.44465 18,2.44465 14.5,1.21592 14.5,1.21592 9.5,0.13581 9.5,0.13581 21.5,-1.30838 21.5,-1.30838 19.8354,-2.49644 19.8353,-2.49645 51.9174,-0.17401 51.9173,-0.17401 0.5041,0.50405 0.504,0.50405 -52.2567,0.1661 -52.2568,0.1661 -24.5,2.91404 -24.5,2.91404 -11,0.66646 -11,0.66647 -15.1544,0.34223 z"
       id="path42" />
    <path
       style="fill:#000000"
       d="m 2509,781 h 15 V 765.5 750 h -15 -15 v 15.5 15.5 z"
       id="path40" />
    <path
       style="fill:#000000"
       d="M 2977.75,781.884 2991,782 V 766.5 751 h -15 -15 v 14.92668 14.92667 l 1.75,0.45732 1.75,0.45733 z"
       id="path38" />
    <path
       style="fill:#000000"
       d="m 1087.7499,960.75 -0.265,63.75 -0.2424,-63.75 L 1087,897 l -4.75,-0.11568 -4.75,-0.11568 -33.9609,0.21893 -33.9609,0.21894 -7.0391,1.95587 -7.0391,1.95586 -9,1.28698 -9,1.28698 -56,28.28466 -56,28.28465 -14.5,3.72505 -14.5,3.72506 -10.34027,0.65512 -10.34026,0.65513 -11.65974,-3.15742 -11.65973,-3.15742 -3.5,-0.42191 -3.5,-0.42191 -1.5,-0.57336 -1.5,-0.57336 -28.25617,0.11436 -28.25618,0.11435 -19.24382,2.53057 -19.24383,2.53057 -14,0.99758 -14,0.99758 -17.5,0.60395 -17.5,0.60395 -19.5,-2.1377 -19.5,-2.13769 -16,-2.01529 -16,-2.01529 -80.5,-0.0474 -80.5,-0.0474 -10.80599,1.19 -10.806,1.19001 -2.32878,-0.58449 -2.32879,-0.58449 -24.31239,3.03139 -24.31239,3.03138 -7.55283,-1.49361 -7.55283,-1.49361 -16.5,-1.5571 -16.5,-1.5571 -5.5,-0.46045 -5.5,-0.46044 -61,-0.16804 -61,-0.16803 -10.80599,1.23229 -10.806,1.2323 -2.32878,-0.58449 -2.32879,-0.58449 -24.312388,3.03139 L 61.60566,968.0825 54.05283,966.57983 46.5,965.07717 29,963.46898 l -17.5,-1.60819 -6,-0.86586 -6,-0.86586 7.5,0.46629 7.5,0.46629 16,1.51681 16,1.51682 7.55283,1.49361 7.55283,1.49361 24.312392,-3.03138 24.312388,-3.03139 2.32879,0.58449 2.32878,0.58449 10.806,-1.2323 10.80599,-1.23229 61,0.16803 61,0.16804 5.5,0.46044 5.5,0.46045 16.5,1.5571 16.5,1.5571 7.55283,1.49361 7.55283,1.49361 24.31239,-3.03138 24.31239,-3.03139 2.32879,0.58449 2.32878,0.58449 10.806,-1.19001 10.80599,-1.19 80.5,0.0474 80.5,0.0474 16,2.01529 16,2.01529 19.5,2.13769 19.5,2.1377 17.5,-0.60395 17.5,-0.60395 14,-0.99758 14,-0.99758 19.24383,-2.53057 19.24382,-2.53057 28.25618,-0.11435 28.25617,-0.11436 1.5,0.57336 1.5,0.57336 3.5,0.42191 3.5,0.42191 11.65973,3.15742 11.65974,3.15742 10.34026,-0.65513 10.34027,-0.65512 14.5,-3.72506 14.5,-3.72505 56,-28.28465 56,-28.28466 9,-1.28698 9,-1.28698 7.3613,-2.04045 7.3612,-2.04045 43.3665,-0.14724 43.3665,-0.14725 6.7722,1.56097 6.7723,1.56097 6,1.18798 6,1.18798 6,0.84418 6,0.84418 20,1.57706 20,1.57706 26,-1.56999 26,-1.56999 6.5,-0.92875 6.5,-0.92876 9,-1.07546 9,-1.07545 6.1641,-1.46742 6.1642,-1.46741 h 10.7534 10.7535 l 11.5824,1.54413 11.5824,1.54413 11,1.46287 11,1.46288 5.8246,-0.007 5.8247,-0.007 16.1753,-1.97022 16.1754,-1.97022 9.5,-1.14537 9.5,-1.14536 11.5,-0.20403 11.5,-0.20403 1.5,0.76115 1.5,0.76114 20.5,2.5086 20.5,2.5086 8.5,-0.16817 8.5,-0.16818 2.3297,1.29589 2.3297,1.2959 7.6703,-0.69392 7.6703,-0.69391 1.5,-1.27675 1.5,-1.27675 6.5,-0.71437 6.5,-0.71437 1.8191,-1.61032 1.8191,-1.61033 9.1809,0.14306 9.1809,0.14305 12.2608,-1.49235 12.2608,-1.49235 7.3091,1.10795 7.3092,1.10795 13.4301,3.39544 13.43,3.39543 7.5,1.92978 7.5,1.92979 12,2.76205 12,2.76206 1.887,0.96561 1.887,0.96562 3.113,1.70761 3.113,1.70761 5.1732,1.63648 5.1733,1.63647 4.1347,2.99515 4.1346,2.99514 3.1921,0.69107 3.1921,0.69107 2.5,1.75404 2.5,1.75404 7.8247,4.15981 7.8247,4.15982 1.6753,0.8819 1.6753,0.88189 5.5,2.07485 5.5,2.07484 28,7.09067 28,7.09067 24,0.30968 24,0.30969 9,-0.95277 9,-0.95277 7.2915,-1.95083 7.2915,-1.95084 6.709,-3.3786 6.709,-3.37859 6.3756,-4.79266 6.3757,-4.79267 5.4328,-6.57042 5.4329,-6.57042 4.3524,-8.67475 4.3525,-8.67475 1.2165,-5.43574 1.2164,-5.43575 8.4543,-0.59663 8.4543,-0.59663 1.6678,0.92499 1.6678,0.92499 12.5426,1.53214 12.5426,1.53213 5.4574,-0.0118 5.4574,-0.0118 16,-2.09522 16,-2.09522 31,-0.30613 31,-0.30612 11.5,1.29749 11.5,1.2975 15.5,-0.30435 15.5,-0.30435 35.25,-0.67718 35.25,-0.67719 v -15.90283 -15.90284 h 32 32 v -16 -16 h 64 64 v -23.85642 -23.85643 l 15.25,-0.57203 15.25,-0.57203 8.3195,-1.23716 8.3196,-1.23717 15.1804,1.55914 15.1805,1.55914 11,0.11361 11,0.11361 10,-1.0346 10,-1.0346 2.75,-0.55199 2.75,-0.55198 v -15.92055 -15.92054 h 16 16 v 15.5 15.5 h 4.0657 4.0658 l 1.7789,0.95204 1.7789,0.95204 11.4053,1.20382 11.4054,1.20383 17.3513,-1.84471 17.3513,-1.84471 8.1487,1.35297 8.1487,1.35296 13.5,0.65398 13.5,0.65398 4.5,1.12013 4.5,1.12014 6,1.18214 6,1.18214 6,0.84418 6,0.84418 20,1.57706 20,1.57706 26,-1.56999 26,-1.56999 6.5,-0.92875 6.5,-0.92876 9,-1.07546 9,-1.07545 6.1641,-1.46742 6.1642,-1.46741 h 20.0051 20.0051 l 6.3307,-1.6232 6.3308,-1.6232 8.5,0.62597 8.5,0.62596 5.5,0.92423 5.5,0.92423 14.6546,0.073 14.6546,0.073 13.8454,-1.67318 13.8454,-1.67318 8.25,0.0956 8.25,0.0956 v -15.42239 -15.42239 h 16 16 v 16.42041 16.4204 l 6.75,0.73836 6.75,0.73836 14,-1.30532 14,-1.30533 15.5,-0.16724 15.5,-0.16724 3.75,-0.1862 3.75,-0.1862 v -38.61828 -38.61827 l 8.75,0.68439 8.75,0.68439 19.5,2.4272 19.5,2.42721 2.3836,0.55925 2.3835,0.55926 9.6165,-1.12851 9.6164,-1.1285 9.5,-1.51394 9.5,-1.51395 13,-0.31522 13,-0.31523 5,-0.9708 5,-0.9708 63,0.26248 63,0.26248 6,0.72066 6,0.72067 16,3.46292 16,3.46291 8.5,-0.61925 8.5,-0.61926 13,-3.05224 13,-3.05225 4.2768,-1.89866 4.2767,-1.89866 h 1.2989 1.299 l 2.3486,-2.5 2.3486,-2.5 h 1.0876 1.0875 l 13.9881,-7.09639 13.9882,-7.09639 1.5787,-1.40361 1.5788,-1.40361 h 1.2195 1.2196 l 4.1395,-2 4.1396,-2 h 0.8539 0.854 l 2.057,-1.91639 2.057,-1.9164 2.6512,-0.6578 2.6512,-0.65779 21,-10.52836 21,-10.52837 1.2138,-0.98984 1.2138,-0.98984 7.7706,-0.96472 7.7705,-0.96472 1.5157,-1.36421 1.5156,-1.36422 9.7106,-1.07867 9.7106,-1.07867 36.2894,0.19756 36.2894,0.19757 -42,0.65841 -42,0.65842 -4,0.77931 -4,0.7793 -1.5156,1.3076 -1.5157,1.3076 -7.7705,0.96472 -7.7706,0.96472 -1.2138,0.98984 -1.2138,0.98984 -21,10.52837 -21,10.52836 -2.6764,0.66413 -2.6764,0.66412 -1.7286,1.91007 -1.7286,1.91006 h -1.1572 -1.1571 l -4.1396,2 -4.1395,2 h -1.2196 -1.2195 l -1.5788,1.40361 -1.5787,1.40361 -13.9882,7.09639 -13.9881,7.09639 h -1.0875 -1.0876 l -2.3486,2.5 -2.3486,2.5 h -1.299 -1.2989 l -4.2767,1.89866 -4.2768,1.89866 -13,3.05225 -13,3.05224 -8.5,0.61926 -8.5,0.61925 -16.2976,-3.56799 -16.2977,-3.56798 -8.4523,-0.6497 -8.4524,-0.6497 v 95.07557 95.07557 l 5.25,0.5488 5.25,0.5488 15,-0.16705 15,-0.16706 16.5,2.23462 16.5,2.23461 8,1.08981 8,1.08981 28.5,0.0816 28.5,0.0816 9.5,-1.18269 9.5,-1.18269 16,-2.08708 16,-2.08707 59,0.0748 59,0.0748 8.5,1.00934 8.5,1.00935 3,1.39611 3,1.39611 6.2367,1.0214 6.2367,1.0214 11.4508,5.54671 11.4508,5.54671 0.5743,0.92915 0.5742,0.92914 5.2383,1.72291 5.2382,1.72292 4,2.70899 4,2.70898 3.5968,1.17154 3.5967,1.17154 4.5991,2.91665 4.5991,2.91666 4.038,1.20983 4.0381,1.20982 1.6711,1.84654 1.6711,1.84654 h 1.2067 1.2067 l 6.544,2.96722 6.5441,2.96721 0.3442,0.78279 0.3443,0.78278 3.5,1.67448 3.5,1.67449 3.75,1.15307 3.75,1.15306 v 0.92371 0.92371 l 6.25,2.9282 6.25,2.9282 6.2644,1.60166 6.2645,1.60166 11.7355,-1.4992 11.7356,-1.49921 44.6285,-0.16603 44.6285,-0.16602 0.9217,0.56962 0.9216,0.56962 13.9499,1.58337 13.9498,1.58338 12,1.61501 12,1.61502 24.5,-0.57918 24.5,-0.57918 24.5,-3.14024 24.5,-3.14024 28,-0.21272 28,-0.21272 4.4908,-1.30515 4.4909,-1.30516 2.8368,-2.02001 2.8369,-2.02001 11.1723,-1.21735 11.1723,-1.21736 3.5,-1.79362 3.5,-1.79363 2.5,-1.72681 2.5,-1.72681 4,-1.28106 4,-1.28106 33.5,-16.90147 33.5,-16.90146 3.8197,-2.31709 3.8198,-2.31709 7.0481,-0.59089 7.0482,-0.59089 1.6321,-1.42335 1.6321,-1.42334 10,-1.24311 10,-1.24311 50.5,0.15582 50.5,0.15583 24,3.07786 24,3.07785 28,0.0652 28,0.0652 25.5,-3.29345 25.5,-3.29345 36,-0.16448 36,-0.16448 1,0.64297 1,0.64297 14.5,1.76407 14.5,1.76407 8,-0.61749 8,-0.61749 12,-1.53007 12,-1.53006 5.25,-0.62216 5.25,-0.62217 v -15.36009 -15.3601 h 32 32 v -16 -16 h 80 80 v -23.86191 -23.8619 l 6.4733,-0.66321 6.4734,-0.66322 1.7766,0.97664 1.7767,0.97663 22,2.72564 22,2.72564 27.5,-0.0479 27.5,-0.0479 25,-3.23016 25,-3.23015 20.5,-0.24753 20.5,-0.24753 1,0.71865 1,0.71866 13.5,1.60495 13.5,1.60495 24,-0.33638 24,-0.33638 10.5,-1.28635 10.5,-1.28635 1.0766,-0.83106 1.0767,-0.83106 6.6733,0.62317 6.6734,0.62317 v 23.99349 23.99349 l 6.4733,-0.66321 6.4734,-0.66322 1.7766,0.97028 1.7767,0.97028 13.5,1.53647 13.5,1.53647 25,-0.3942 25,-0.39419 15,-1.9385 15,-1.9385 33.5,0.13719 33.5,0.13719 2,1.26163 2,1.26162 -2.5,-0.74594 -2.5,-0.74593 -33,-0.1496 -33,-0.14959 -15,1.93522 -15,1.93521 -25,0.39419 -25,0.3942 -13.5,-1.53647 -13.5,-1.53647 -1.7767,-0.97028 -1.7766,-0.97028 -6.4684,0.6627 -6.4683,0.6627 -0.2601,95.61242 -0.2601,95.61245 -0.2449,-119.60757 -0.2449,-119.60755 -6.1474,-0.64253 -6.1475,-0.64254 -1.1025,0.85258 -1.1026,0.85257 -10.5,1.28635 -10.5,1.28635 -24,0.33638 -24,0.33638 -13.5,-1.60495 -13.5,-1.60495 -1,-0.71866 -1,-0.71865 -20.5,0.24753 -20.5,0.24753 -25,3.23015 -25,3.23016 -27.5,0.0479 -27.5,0.0479 -22,-2.72564 -22,-2.72564 -1.8058,-0.99485 -1.8059,-0.99486 -5.9441,0.67251 -5.9442,0.6725 -0.2449,119.62084 -0.2449,119.62086 -0.2601,-95.75003 -0.2601,-95.75 H 4848.495 4769 l -0.2439,95.75 -0.244,95.75003 -0.262,-79.75003 -0.2621,-79.75 H 4736.494 4705 l -0.2425,79.75 -0.2425,79.75003 -0.2649,-64.38917 -0.2649,-64.38914 -5.2426,0.6214 -5.2426,0.6214 -12,1.53006 -12,1.53007 -8,0.61749 -8,0.61749 -14.5,-1.76407 -14.5,-1.76407 -1,-0.64297 -1,-0.64297 -36,0.16448 -36,0.16448 -25.5,3.29345 -25.5,3.29345 -28,-0.0652 -28,-0.0652 -24,-3.07785 -24,-3.07786 -50.5,-0.15583 -50.5,-0.15582 -10,1.24311 -10,1.24311 -1.6321,1.42334 -1.6321,1.42335 -7.0482,0.59089 -7.0481,0.59089 -3.8198,2.31709 -3.8197,2.31709 -33.5,16.90146 -33.5,16.90147 -4,1.28106 -4,1.28106 -2.5,1.72681 -2.5,1.72681 -3.5,1.79363 -3.5,1.79362 -11.1723,1.21736 -11.1723,1.21735 -2.8369,2.02001 -2.8368,2.02001 -4.4909,1.30516 -4.4908,1.30515 -28,0.21272 -28,0.21272 -24.5,3.14024 -24.5,3.14024 -24.5,0.57918 -24.5,0.57918 -12,-1.61502 -12,-1.61501 -13.9498,-1.58338 -13.9499,-1.58337 -0.9216,-0.56962 -0.9217,-0.56962 -44.6285,0.16602 -44.6285,0.16603 -11.7356,1.49921 -11.7355,1.4992 -6.2645,-1.60166 -6.2644,-1.60166 -6.0468,-2.83221 -6.0469,-2.83222 -1.2722,-1.53297 -1.2723,-1.53296 -2.8332,-0.62228 -2.8333,-0.62229 -3.7792,-1.92676 -3.7792,-1.92677 -0.5685,-0.85059 -0.5684,-0.85059 -5.8708,-2.66464 -5.8709,-2.66464 h -1.2242 -1.2241 l -1.6711,-1.84654 -1.6711,-1.84654 -4.0381,-1.20982 -4.038,-1.20983 -4.5991,-2.91666 -4.5991,-2.91665 -3.5967,-1.17154 -3.5968,-1.17154 -4,-2.70898 -4,-2.70899 -5.2382,-1.72292 -5.2383,-1.72291 -0.5742,-0.92914 -0.5743,-0.92915 -11.4508,-5.54671 -11.4508,-5.54671 -6.2367,-1.0214 -6.2367,-1.0214 -3,-1.39611 -3,-1.39611 -8.5,-1.00935 -8.5,-1.00934 -59,-0.0748 -59,-0.0748 -16,2.08707 -16,2.08708 -9.5,1.18269 -9.5,1.18269 -28.5,-0.0816 -28.5,-0.0816 -8,-1.08981 -8,-1.08981 -16.5,-2.20078 -16.5,-2.20079 -20.2427,-0.0936 -20.2427,-0.0936 -0.2648,64 -0.2648,63.99997 -0.2425,-159.74997 L 3327,705 l -3.75,-0.1085 -3.75,-0.10851 -56,-0.24745 -56,-0.24746 -5,0.95086 -5,0.95086 -13,0.31523 -13,0.31522 -9.5,1.51395 -9.5,1.51394 -9.6164,1.1285 -9.6165,1.12851 -2.3835,-0.55926 -2.3836,-0.55925 -19.5,-2.41939 -19.5,-2.41938 -8.25,-0.67802 -8.25,-0.67801 -0.246,159.85408 -0.2459,159.85408 -0.258,-121.06737 -0.2581,-121.06737 -19.246,0.2113 -19.246,0.21129 -14.0931,1.28862 -14.0931,1.28861 -9.9069,-1.16229 -9.9069,-1.16229 -16,-0.69922 -16,-0.69923 -4.5,0.0127 -4.5,0.0127 -14.3788,1.66633 -14.3788,1.66632 -14.6212,-0.073 -14.6212,-0.073 -5.5,-0.92423 -5.5,-0.92423 -8.5,-0.62596 -8.5,-0.62597 -6.3308,1.6232 -6.3307,1.6232 h -14.4152 -14.4152 l -0.2581,119.75 -0.2582,119.74999 -0.2459,-119.74999 L 2816,785 h -5.0859 -5.0858 l -6.1642,1.46741 -6.1641,1.46742 -9,1.07545 -9,1.07546 -6.5,0.92876 -6.5,0.92875 -26,1.56999 -26,1.56999 -20,-1.57706 -20,-1.57706 -6,-0.84418 -6,-0.84418 -6,-1.18112 -6,-1.18112 -6.1641,-1.43925 L 2634.1717,785 h -5.0818 -5.0818 l -0.2581,119.75 -0.2582,119.75 -0.2459,-119.66467 -0.2459,-119.66468 -6.25,-0.43011 -6.25,-0.43011 -8.1487,-1.34406 -8.1487,-1.34406 -17.3513,1.84471 -17.3513,1.84471 -11.4054,-1.20383 -11.4053,-1.20382 -1.5947,-0.85257 -1.5946,-0.85256 -24.5,0.8635 -24.5,0.86351 -8,1.02819 -8,1.0282 -11.5,-0.0973 -11.5,-0.0973 -15.1805,-1.55945 -15.1804,-1.55946 -8.3196,1.23283 -8.3195,1.23282 -14.75,0.57806 -14.75,0.57806 -0.2449,119.60473 -0.2449,119.60476 -0.2601,-95.75002 -0.2601,-95.75 H 2304.495 2241 l -0.2439,95.75 -0.244,95.75002 -0.262,-79.75002 -0.2621,-79.75 H 2208.494 2177 l -0.2425,79.75 -0.2424,79.75002 -0.265,-63.84712 -0.265,-63.84709 -35.2425,0.67711 -35.2426,0.67712 -15.5,0.30435 -15.5,0.30435 -11.5,-1.2975 -11.5,-1.29749 -31,0.30612 -31,0.30613 -16,2.09522 -16,2.09522 -5.4574,0.0118 -5.4574,0.0118 -12.5426,-1.53213 -12.5426,-1.53214 -1.6933,-0.94093 -1.6933,-0.94094 -7.9313,0.61161 -7.9312,0.61162 -1.6926,6.08777 -1.6925,6.08777 -3.9173,7.52369 -3.9173,7.52368 -5.0407,6.22491 -5.0407,6.2249 -6.2249,5.04072 -6.2249,5.04072 -7.5566,3.93437 -7.5566,3.93438 -7.4434,1.99252 -7.4434,1.99251 -9,0.95277 -9,0.95277 -24,-0.30969 -24,-0.30968 -28,-7.09067 -28,-7.09067 -5.5,-2.07484 -5.5,-2.07485 -1.6753,-0.88189 -1.6753,-0.8819 -7.8247,-4.15982 -7.8247,-4.15981 -2.5,-1.75404 -2.5,-1.75404 -3.1921,-0.69107 -3.1921,-0.69107 -4.1346,-2.99514 -4.1347,-2.99515 -5.1733,-1.63647 -5.1732,-1.63648 -3.113,-1.70761 -3.113,-1.70761 -1.887,-0.96562 -1.887,-0.96561 -12,-2.76206 -12,-2.76205 -7.5,-1.92979 -7.5,-1.92978 -13.43,-3.39543 -13.4301,-3.39544 -7.3092,-1.10795 -7.3091,-1.10795 -12.2608,1.49235 -12.2608,1.49235 -9.1809,-0.14305 -9.1809,-0.14306 -1.8191,1.61033 -1.8191,1.61032 -6.5,0.71437 -6.5,0.71437 -1.5,1.27675 -1.5,1.27675 -7.6703,0.69391 -7.6703,0.69392 -2.3297,-1.2959 -2.3297,-1.29589 -8.5,0.16818 -8.5,0.16817 -20.5,-2.5086 -20.5,-2.5086 -1.5,-0.76114 -1.5,-0.76115 -11.5,0.20403 -11.5,0.20403 -9.5,1.14536 -9.5,1.14537 -16.1754,1.97022 -16.1753,1.97022 -5.8247,0.007 -5.8246,0.007 -11,-1.46288 -11,-1.46287 -11.5824,-1.54413 -11.5824,-1.54413 h -5.1602 -5.1602 l -0.2649,63.75 -0.265,63.74999 -0.2424,-63.74999 L 1280,897 h -5.0859 -5.0858 l -6.1642,1.46741 -6.1641,1.46742 -9,1.07545 -9,1.07546 -6.5,0.92876 -6.5,0.92875 -26,1.56999 -26,1.56999 -20,-1.57706 -20,-1.57706 -6,-0.84418 -6,-0.84418 -6,-1.18112 -6,-1.18112 -6.1641,-1.43925 L 1098.1717,897 h -5.0784 -5.0785 z"
       id="path36" />
    <path
       style="fill:#000000"
       d="M 6347.75,862.9205 6399,863 V 623.93805 384.87611 l -32.75,0.38038 -32.75,0.38039 -21,2.84606 -21,2.84605 -27,0.0167 -27,0.0166 -26,-3.1232 -26,-3.1232 -20.25,-0.33481 -20.25,-0.33481 v 111.16237 111.16237 l 27.25,0.4846 27.25,0.4846 8.6356,1.61507 8.6356,1.61506 7.9745,2.82194 7.9744,2.82193 7.39,4.22921 7.3899,4.22921 6.3433,5.37037 6.3433,5.37037 5.38,6.34331 5.3799,6.34332 4.5447,8 4.5448,8 3.19,9.5 3.1901,9.5 -0.01,12.5 -0.01,12.5 -2.8189,8.5 -2.8189,8.5 -2.8145,5.5 -2.8146,5.5 -5.6166,6.5 -5.6167,6.5 -4.6534,5.40831 -4.6535,5.4083 -2.4537,3.5917 -2.4538,3.59169 -3.0941,6.5 -3.0941,6.5 v 19.5 19.5 l 2.7878,5.95352 2.7879,5.95352 3.3786,5.04648 3.3786,5.04648 4.3336,4.05772 4.3335,4.05772 4,2.64299 4,2.64299 5.7086,2.60366 5.7087,2.60365 6.2913,1.36614 6.2914,1.36613 51.25,0.0795 z"
       id="path34" />
    <path
       style="fill:#000000"
       d="m 6859.75,1118.9205 51.25,0.08 V 880.07888 641.15727 l -51.75,-0.44577 -51.75,-0.44578 -8.1234,-1.61347 -8.1234,-1.61346 -7.9867,-2.82625 -7.9866,-2.82625 -7.39,-4.22921 -7.3899,-4.22921 -6.3433,-5.37037 -6.3433,-5.37037 -5.38,-6.34331 -5.3799,-6.34332 -4.5447,-8 -4.5448,-8 -3.2222,-9.5 -3.2222,-9.5 0.01,-20.5 0.01,-20.5 2.8511,-8.5 2.851,-8.5 2.8145,-5.5 2.8146,-5.5 5.6166,-6.5 5.6167,-6.5 4.6534,-5.40831 4.6535,-5.4083 2.4537,-3.5917 2.4538,-3.59169 3.0941,-6.5 3.0941,-6.5 v -11.5 -11.5 l -2.7878,-5.95352 -2.7879,-5.95352 -3.3786,-5.04648 -3.3786,-5.04648 -4.3336,-4.02506 -4.3335,-4.02505 -3.0489,-2.10618 -3.0488,-2.10617 -5.297,-2.68421 -5.2971,-2.6842 -7.564,-1.93457 -7.5641,-1.93456 h -27.3401 -27.34 V 623.886 862.77151 l 27.25,0.4846 27.25,0.4846 8.6356,1.61507 8.6356,1.61506 7.9745,2.82194 7.9744,2.82193 7.39,4.22921 7.3899,4.22921 6.3433,5.37037 6.3433,5.37037 5.38,6.34331 5.3799,6.34332 4.5447,8 4.5448,8 3.19,9.5 3.1901,9.5 -0.01,12.5 -0.01,12.5 -2.8189,8.5 -2.8189,8.5 -2.8145,5.5 -2.8146,5.5 -5.6166,6.5 -5.6167,6.5 -4.6534,5.4083 -4.6535,5.4083 -2.4537,3.5917 -2.4538,3.5917 -3.0941,6.5 -3.0941,6.5 v 19.5 19.5 l 2.7878,5.9535 2.7879,5.9535 3.3786,5.0465 3.3786,5.0465 4.3336,4.0577 4.3335,4.0577 4,2.643 4,2.643 5.7086,2.6037 5.7087,2.6036 6.2913,1.3662 6.2914,1.3661 51.25,0.08 z"
       id="path32" />
    <path
       style="fill:#000000"
       d="m 6860.25,1119.9205 -51.75,-0.08 -6.2914,-1.3661 -6.2913,-1.3662 -5.7087,-2.6036 -5.7086,-2.6037 -4,-2.6418 -4,-2.6418 -4.8316,-4.5589 -4.8317,-4.5589 -3.3805,-5.0465 -3.3805,-5.0465 -2.7879,-5.9535 -2.7878,-5.9535 v -19.5 -19.5 l 3.0941,-6.5 3.0941,-6.5 2.4538,-3.5917 2.4537,-3.5917 4.6535,-5.4083 4.6534,-5.4083 5.6167,-6.5 5.6166,-6.5 2.8146,-5.5 2.8145,-5.5 2.8189,-8.5 2.8189,-8.5 0.01,-12.5 0.01,-12.5 -3.1901,-9.5 -3.19,-9.5 -4.5448,-8 -4.5447,-8 -5.2233,-6.12773 -5.2232,-6.12774 -5.9607,-5.06446 -5.9606,-5.06447 -7.4293,-4.25069 -7.4293,-4.2507 -7.9744,-2.82193 -7.9745,-2.82194 -8.6356,-1.617 -8.6356,-1.617 -27.75,-0.48135 -27.75,-0.48135 5e-4,-239.63682 4e-4,-239.63682 -28.7504,0.2815 -28.7505,0.28149 -17,2.06219 -17,2.06219 -8,0.93597 -8,0.93597 -20,0.44028 -20,0.44028 -13.5,-0.97911 -13.5,-0.97911 -7.5,-0.99587 -7.5,-0.99588 -14.5,-1.83047 -14.5,-1.83047 -18.75,0.4309 -18.75,0.43089 V 624.59487 863.9995 l -51.25,-0.0174 -51.25,-0.0174 -6.8348,-1.44815 -6.8348,-1.44814 -5.6652,-2.58378 -5.6652,-2.58378 -4,-2.6418 -4,-2.64181 -4.8316,-4.5589 -4.8317,-4.55891 -3.3805,-5.04648 -3.3805,-5.04648 -2.7879,-5.95352 -2.7878,-5.95352 v -19.5 -19.5 l 3.0941,-6.5 3.0941,-6.5 2.4538,-3.59169 2.4537,-3.5917 4.6535,-5.4083 4.6534,-5.40831 5.6167,-6.5 5.6166,-6.5 2.8146,-5.5 2.8145,-5.5 2.8189,-8.5 2.8189,-8.5 0.01,-12.5 0.01,-12.5 -3.1901,-9.5 -3.19,-9.5 -4.5389,-8 -4.539,-8 -5.1013,-6 -5.1013,-6 -6.1278,-5.21368 -6.1277,-5.21369 -7.3899,-4.22921 -7.39,-4.22921 -7.9744,-2.82193 -7.9745,-2.82194 -8.6356,-1.617 -8.6356,-1.617 -27.75,-0.48135 -27.75,-0.48135 2e-4,-111.63682 3e-4,-111.63682 -28.9332,0.17486 -28.9332,0.17485 -9.8171,1.16293 -9.817,1.16292 -1.5,1.26415 -1.5,1.26415 -8.5,1.15863 -8.5,1.15862 -4,2.83646 -4,2.83646 -4.7268,1.58437 -4.7267,1.58437 -3.2733,2.44485 -3.2732,2.44485 -3.5968,1.15074 -3.5967,1.15075 -4.4707,2.83521 -4.4707,2.83522 -3.9325,1.28236 -3.9326,1.28237 -4,2.70005 -4,2.70006 -4.7268,1.58677 -4.7267,1.58677 -3.3677,2.56861 -3.3676,2.56862 h -1.295 -1.295 l -4.6106,2.80013 -4.6106,2.80013 -4,1.8776 -4,1.87759 -11,1.12998 -11,1.12997 -4.1164,2.6205 -4.1164,2.6205 -7.3836,0.98578 -7.3836,0.98578 -41.9521,0.12148 -41.9522,0.12148 0.5003,-0.50025 0.5003,-0.50025 41.4518,-0.12165 41.4519,-0.12165 7.3836,-0.98536 7.3836,-0.98536 4.1164,-2.6205 4.1164,-2.6205 11,-1.12997 11,-1.12998 4,-1.87759 4,-1.8776 4.6106,-2.80013 4.6106,-2.80013 h 1.295 1.295 l 3.3676,-2.56862 3.3677,-2.56861 4.7267,-1.58677 4.7268,-1.58677 4,-2.70006 4,-2.70005 3.9326,-1.28237 3.9325,-1.28236 4.4707,-2.83522 4.4707,-2.83521 3.5967,-1.15075 3.5968,-1.15074 3.2732,-2.44485 3.2733,-2.44485 4.7267,-1.58437 4.7268,-1.58437 4,-2.83646 4,-2.83646 8.5,-1.15862 8.5,-1.15863 1.5,-1.26415 1.5,-1.26415 10,-1.21402 10,-1.21401 49.0111,0.0614 49.0111,0.0614 26.4889,3.24594 26.4889,3.24595 27,-0.0166 27,-0.0167 21,-2.84811 21,-2.84811 52,-0.6056 52,-0.6056 14.5,1.78417 14.5,1.78416 7.5,0.99588 7.5,0.99587 13.5,0.97911 13.5,0.97911 20,-0.43685 20,-0.43685 8.5,-0.99926 8.5,-0.99926 16,-2.04003 16,-2.04004 57,-0.0191 57,-0.0191 7.6541,1.95984 7.6541,1.95985 5.2971,2.6842 5.297,2.68421 3.0488,2.10501 3.0489,2.10501 4.8316,4.52622 4.8317,4.52622 3.3805,5.04648 3.3805,5.04648 2.7879,5.95352 2.7878,5.95352 v 11.5 11.5 l -3.0941,6.5 -3.0941,6.5 -2.4538,3.59169 -2.4537,3.5917 -4.6535,5.4083 -4.6534,5.40831 -5.6167,6.5 -5.6166,6.5 -2.8146,5.5 -2.8145,5.5 -2.851,8.5 -2.8511,8.5 -0.01,20.5 -0.01,20.5 3.2222,9.5 3.2222,9.5 4.5448,8 4.5447,8 5.2233,6.12773 5.2232,6.12774 5.9607,5.06446 5.9606,5.06447 7.4293,4.25069 7.4293,4.2507 7.61,2.69033 7.6101,2.69034 9.5,1.79803 9.5,1.79804 51.25,0.39094 51.25,0.39094 v 239.9278 239.92779 l -51.75,-0.08 z"
       id="path30" />
    <path
       style="fill:#000000"
       d="m 10045.704,1223.9007 -3.204,-0.099 -5.5,-1.3018 -5.5,-1.3018 -16,-1.7803 -16,-1.7802 -7.5,-0.7115 -7.5,-0.7116 8,0.2526 8,0.2525 15,1.6957 15,1.6957 7.752,1.6087 7.753,1.6087 19.747,-2.6109 19.748,-2.611 13.5,-0.4701 13.5,-0.4701 2.5,-0.9064 2.5,-0.9065 61.5,0.6939 61.5,0.6939 -62,0.017 -62,0.017 -6.5,1.092 -6.5,1.0919 -9.605,0.02 -9.605,0.02 -17.692,2.5 -17.691,2.5 -3.203,-0.099 z"
       id="path28" />
    <path
       style="fill:#000000"
       d="m 7544,1158 h 15 v -15.5 -15.5 h -15 -15 v 15.5 15.5 z"
       id="path26" />
    <path
       style="fill:#000000"
       d="m 7680.9791,1248.5 -0.5208,32 -0.2292,-64.0135 -0.2291,-64.0134 -29.25,0.1534 -29.25,0.1535 -24,3.0245 -24,3.0245 -29.5,0.1059 -29.5,0.1059 -27,-3.3771 -27,-3.3772 -47.5,0.249 -47.5,0.249 -16,2.096 -16,2.0959 -5.4574,0.012 -5.4574,0.012 -12.5426,-1.55 -12.5426,-1.5501 -2,-0.977 -2,-0.9769 -3,0.01 -3,0.01 -4.611,0.6063 -4.6109,0.6062 -1.7062,6.1367 -1.7061,6.1366 -3.9173,7.5237 -3.9173,7.5237 -5.0407,6.2249 -5.0407,6.2249 -6.2249,5.0407 -6.2249,5.0407 -7.5566,3.9344 -7.5566,3.9344 -7.4434,1.9962 -7.4434,1.9963 -9.822,1.1295 -9.822,1.1295 -3.678,-0.6209 -3.678,-0.6209 -20.5,1.0386 -20.5,1.0387 -6.3103,1.038 -6.3103,1.0381 -6.4154,-1.6089 -6.4155,-1.609 -36.2742,-18.051 -36.2743,-18.051 -7.4439,-3.4031 -7.4439,-3.4031 -5.0561,-3.3222 -5.0561,-3.3223 -2.5,-0.612 -2.5,-0.612 -5.2897,-3.4205 -5.2897,-3.4205 -7.7103,-0.7091 -7.7103,-0.7091 -1.5,-1.2902 -1.5,-1.2901 -4,-0.7082 -4,-0.7082 -87,-0.7638 -87,-0.7639 -8.1234,-1.6233 -8.1234,-1.6233 -7.9867,-2.8263 -7.9866,-2.8262 -7.39,-4.2292 -7.3899,-4.2292 -6.3433,-5.3704 -6.3433,-5.3704 -5.38,-6.3433 -5.3799,-6.3433 -4.5447,-8 -4.5448,-8 -3.2222,-9.5 -3.2222,-9.5 0.01,-20.5 0.01,-20.5 2.8511,-8.5 2.851,-8.5 2.8145,-5.5 2.8146,-5.5 5.6166,-6.5 5.6167,-6.5 4.6534,-5.40831 4.6535,-5.4083 2.4537,-3.5917 2.4538,-3.59169 3.0941,-6.5 3.0941,-6.5 v -11.5 -11.5 l -2.7993,-6 -2.7993,-6 -2.643,-4 -2.643,-4 -4.0577,-4.33354 -4.0577,-4.33354 -5.0465,-3.37861 -5.0465,-3.37861 -5.4535,-2.4954 -5.4535,-2.4954 -6.5,-1.50551 -6.5,-1.5055 -53.5,-0.38894 -53.5,-0.38894 -28,3.51608 -28,3.51608 -28.5,-0.0401 -28.5,-0.0401 -24.5,-3.21792 -24.5,-3.21792 -73,-0.16582 -73,-0.16583 -8.6356,-1.72538 -8.6356,-1.72539 -7.9745,-2.82194 -7.9744,-2.82193 -7.39,-4.22921 -7.3899,-4.22921 -6.3433,-5.37037 -6.3433,-5.37037 -5.38,-6.34331 -5.3799,-6.34332 -4.5447,-8 -4.5448,-8 -3.2222,-9.5 -3.2222,-9.5 0.01,-20.5 0.01,-20.5 2.8511,-8.5 2.851,-8.5 2.8145,-5.5 2.8146,-5.5 5.6166,-6.5 5.6167,-6.5 4.6534,-5.40831 4.6535,-5.4083 2.4537,-3.5917 2.4538,-3.59169 3.0941,-6.5 3.0941,-6.5 v -11.5 -11.5 l -2.7878,-5.95352 -2.7879,-5.95352 -3.3786,-5.04648 -3.3786,-5.04648 -4.3336,-4.02506 -4.3335,-4.02505 -3.0489,-2.10618 -3.0488,-2.10617 -5.297,-2.68421 -5.2971,-2.6842 -7.564,-1.93457 -7.5641,-1.93456 h -57.4187 -57.4186 l -18.1714,2.46253 -18.1714,2.46253 -16.5,1.16116 -16.5,1.16115 -19.5,-0.58278 -19.5,-0.58278 -11.5,-1.5842 -11.5,-1.58419 -11,-1.38736 -11,-1.38735 -50.5,-0.2275 -50.5,-0.2275 -10,1.2831 -10,1.2831 -1.7242,1.50672 -1.7243,1.50672 -7.2757,0.50364 -7.2758,0.50364 -2.6863,1.88741 -2.6863,1.8874 -6.8137,3.14322 -6.8137,3.14321 -2.5,1.71477 -2.5,1.71477 -22.5,10.69295 -22.5,10.69295 -2.0645,1.92635 -2.0644,1.92634 h -1.2188 -1.2188 l -5.2167,2.614 -5.2168,2.614 -1.5,1.17906 -1.5,1.17905 -3.5,1.14478 -3.5,1.14478 -9.2808,0.69356 -9.2809,0.69356 -5.561,2.88524 -5.561,2.88525 -6.826,0.9681 -6.8261,0.96811 -200.3321,-0.13193 -200.3321,-0.13193 -7.8996,1.2383 -7.8996,1.23829 -4.1698,-0.62531 -4.1699,-0.62531 -19.9306,2.56358 -19.9305,2.56359 -3.6425,0.58124 -3.6425,0.58123 -7.3575,-1.54755 -7.3575,-1.54756 -14,-1.65765 -14,-1.65764 -13.5,-0.5261 -13.5,-0.5261 -13.2035,1.62009 -13.2036,1.62009 -5.2964,-1.114 -5.2965,-1.11399 -5.5,-2.54754 -5.5,-2.54753 -2.333,-1.79708 -2.333,-1.79709 -5.5118,-2.06224 -5.5119,-2.06225 -3.1551,-2.35285 -3.1552,-2.35284 -5.1324,-1.66701 -5.1324,-1.66701 -1.7385,-1.92105 -1.7385,-1.92105 -3.6291,-1.15539 -3.6291,-1.15539 -7,-3.76451 -7,-3.76451 -3.7754,-1.20368 -3.7754,-1.20368 -2.7246,-2.27723 -2.7246,-2.27723 -2.5,-0.78227 -2.5,-0.78227 -14.6728,-7.70404 -14.6729,-7.70404 -6.2581,-0.65411 -6.2582,-0.65411 -2.069,-1.33556 -2.069,-1.33555 -10.5,-1.23006 -10.5,-1.23005 -38,-0.2764 -38,-0.27641 -14,-3.58013 -14,-3.58013 -8.5,-0.65435 -8.5,-0.65435 -2,-1.79197 -2,-1.79198 -6.8674,-2.17908 -6.8674,-2.17909 -12.1326,-6.05295 -12.1326,-6.05295 -2,-1.72602 -2,-1.72601 -4,-1.14081 -4,-1.1408 -5.4663,-3.52909 -5.4663,-3.52909 h -1.2529 -1.2529 l -3.9627,-2.06546 -3.9627,-2.06547 -1.1905,-1.43453 -1.1906,-1.43454 -2.6275,-0.003 -2.6276,-0.003 -14.5,-3.51569 -14.5,-3.51568 -2,-0.95538 -2,-0.95537 -28.5,-3.38464 -28.5,-3.38464 -41.25,0.46696 -41.25,0.46697 -0.1927,22.14171 -0.1927,22.14172 -0.355,-6.25 -0.355,-6.25 h -31.4523 -31.4523 l -0.1927,22.25 -0.1927,22.25 -0.3526,-6.15686 -0.3526,-6.15685 -10.2047,-0.67717 -10.2047,-0.67716 -19,0.50668 -19,0.50668 -8,1.04688 -8,1.04688 -18,-0.37551 -18,-0.37552 -5.5,-0.90965 -5.5,-0.90965 -34.2489,0.0704 -34.2488,0.0704 2.2488,-0.58824 2.2489,-0.58824 35,0.22416 35,0.22416 4.5,1.0198 4.5,1.01981 21,-0.29013 21,-0.29014 5,-1.03294 5,-1.03294 27.25,0.16256 27.2501,0.16257 -1e-4,-15.75 v -15.75 h 32 32 v -15.89262 -15.89262 l 41.75,-0.46476 41.75,-0.46476 28.5,3.38334 28.5,3.38334 2,0.95537 2,0.95538 14.5,3.51568 14.5,3.51569 2.6276,0.003 2.6275,0.003 1.1906,1.43454 1.1905,1.43453 3.9627,2.06547 3.9627,2.06546 h 1.2529 1.2529 l 5.4663,3.52909 5.4663,3.52909 4,1.1408 4,1.14081 2,1.72601 2,1.72602 12.1326,6.05295 12.1326,6.05295 6.8674,2.17909 6.8674,2.17908 2,1.79198 2,1.79197 8.5,0.65435 8.5,0.65435 14,3.58013 14,3.58013 38,0.27641 38,0.2764 10.5,1.23005 10.5,1.23006 2.069,1.33555 2.069,1.33556 6.2582,0.65411 6.2581,0.65411 14.8995,7.82455 14.8995,7.82456 2.3429,0.58804 2.3429,0.58804 2.7865,2.39431 2.7864,2.39431 3.644,1.16031 3.644,1.16032 7,3.76451 7,3.76451 3.6291,1.15539 3.6291,1.15539 1.7385,1.92105 1.7385,1.92105 5.1324,1.66701 5.1324,1.66701 3.1552,2.35284 3.1551,2.35285 5.5119,2.06225 5.5118,2.06224 2.333,1.79709 2.333,1.79708 5.5,2.54753 5.5,2.54754 5.2965,1.11399 5.2964,1.114 13.2036,-1.62009 13.2035,-1.62009 13.5,0.5261 13.5,0.5261 14,1.65764 14,1.65765 7.3575,1.54756 7.3575,1.54755 3.6425,-0.58123 3.6425,-0.58124 19.9305,-2.56359 19.9306,-2.56358 4.1699,0.62531 4.1698,0.62531 7.8996,-1.23829 7.8996,-1.2383 200.3321,0.13193 200.3321,0.13193 6.8261,-0.96811 6.826,-0.9681 5.561,-2.88525 5.561,-2.88524 9.2809,-0.69356 9.2808,-0.69356 3.5,-1.14478 3.5,-1.14478 1.5,-1.17905 1.5,-1.17906 5.2168,-2.614 5.2167,-2.614 h 1.2188 1.2188 l 2.0644,-1.92634 2.0645,-1.92635 22.5,-10.69295 22.5,-10.69295 2.5,-1.71477 2.5,-1.71477 6.8137,-3.14321 6.8137,-3.14322 2.6863,-1.8874 2.6863,-1.88741 7.2758,-0.50364 7.2757,-0.50364 1.7243,-1.50672 1.7242,-1.50672 10,-1.2831 10,-1.2831 50.5,0.2275 50.5,0.2275 11,1.38735 11,1.38736 11.5,1.58419 11.5,1.5842 19.5,0.58278 19.5,0.58278 16.5,-1.16115 16.5,-1.16116 18.1714,-2.46253 18.1714,-2.46253 h 57.4186 57.4187 l 7.5641,1.93456 7.564,1.93457 5.2971,2.6842 5.297,2.68421 3.0488,2.10501 3.0489,2.10501 4.8316,4.52622 4.8317,4.52622 3.3805,5.04648 3.3805,5.04648 2.7879,5.95352 2.7878,5.95352 v 11.5 11.5 l -3.0941,6.5 -3.0941,6.5 -2.4538,3.59169 -2.4537,3.5917 -4.6535,5.4083 -4.6534,5.40831 -5.6167,6.5 -5.6166,6.5 -2.8146,5.5 -2.8145,5.5 -2.851,8.5 -2.8511,8.5 -0.01,20.5 -0.01,20.5 3.2222,9.5 3.2222,9.5 4.5448,8 4.5447,8 5.2233,6.12773 5.2232,6.12774 5.9607,5.06446 5.9606,5.06447 7.4293,4.25069 7.4293,4.2507 7.61,2.69033 7.6101,2.69034 9.5,1.85257 9.5,1.85257 72.5,0.16997 72.5,0.16996 24.5,3.2182 24.5,3.21819 28.5,0.0401 28.5,0.0401 28,-3.51608 28,-3.51608 53.5,0.38894 53.5,0.38894 6.5,1.5055 6.5,1.50551 5.4535,2.4954 5.4535,2.4954 5.0465,3.38051 5.0465,3.3805 4.5589,4.83165 4.5589,4.83164 2.6418,4 2.6418,4 2.7993,6 2.7993,6 v 11.5 11.5 l -3.0941,6.5 -3.0941,6.5 -2.4538,3.59169 -2.4537,3.5917 -4.6535,5.4083 -4.6534,5.40831 -5.6167,6.50002 -5.6166,6.5 -2.8146,5.5 -2.8145,5.5 -2.851,8.5 -2.8511,8.5 -0.01,20.5 -0.01,20.5 3.2222,9.5 3.2222,9.5 4.5448,8 4.5447,8 5.2233,6.1277 5.2232,6.1278 5.9607,5.0644 5.9606,5.0645 7.4293,4.2507 7.4293,4.2507 7.61,2.6903 7.6101,2.6904 9.5,1.8048 9.5,1.8049 86,0.7167 86,0.7166 4,0.7098 4,0.7097 1.5,1.2901 1.5,1.2902 7.7103,0.7091 7.7103,0.7091 5.2897,3.4205 5.2897,3.4205 2.5,0.612 2.5,0.612 5.0561,3.3223 5.0561,3.3222 7.4439,3.4031 7.4439,3.4031 36.2743,18.051 36.2742,18.051 6.4155,1.609 6.4154,1.6089 6.3103,-1.0381 6.3103,-1.038 20.5,-1.0387 20.5,-1.0386 3.678,0.6209 3.678,0.6209 9.822,-1.1295 9.822,-1.1295 7.2915,-1.9546 7.2915,-1.9545 6.709,-3.3786 6.709,-3.3786 6.3756,-4.7927 6.3757,-4.7927 5.4328,-6.5704 5.4329,-6.5704 4.3524,-8.6747 4.3525,-8.6748 1.2282,-5.4882 1.2282,-5.4881 5.1103,-0.5937 5.1104,-0.5937 3,-0.02 3,-0.02 2,0.9769 2,0.977 12.5426,1.5501 12.5426,1.55 5.4574,-0.012 5.4574,-0.012 16,-2.0959 16,-2.096 47.5,-0.249 47.5,-0.249 27,3.3563 27,3.3563 6.75,4e-4 6.75,5e-4 v -16 -16 h 16 16 v 15.7659 15.7659 l 6.25,0.1934 6.25,0.1934 24.5,-3.0653 24.5,-3.0652 29.7364,-0.1726 29.7365,-0.1727 0.2635,32.0286 0.2636,32.0286 h 6 6 l 1,0.6518 1,0.6518 14,1.6015 14,1.6016 17,-0.4153 17,-0.4153 15.5,-1.937 15.5,-1.937 15,0.1491 15,0.149 15.7293,2.1923 15.7293,2.1924 17.7707,-0.4488 17.7707,-0.4488 14.5,-1.7936 14.5,-1.7937 180,0.5234 180,0.5233 21,2.9061 21,2.906 28,-0.097 28,-0.097 27.5,-3.4198 27.5,-3.4198 17.5,0.1681 17.5,0.168 1.5,0.6126 1.5,0.6126 12.5426,1.5571 12.5426,1.557 5.4574,-0.012 5.4574,-0.012 16,-2.0411 16,-2.041 5.25,-0.5871 5.25,-0.587 v -15.222 -15.222 l 6.6015,-0.6763 6.6014,-0.6764 1.1486,0.9233 1.1485,0.9233 16.7811,1.8288 16.781,1.8288 23.469,-2.8997 23.4689,-2.8997 v -15.3142 -15.3141 h 53.3526 53.3526 l 24.3974,3.1502 24.3974,3.1502 28.5,0.017 28.5,0.017 28,-3.5182 28,-3.5181 54,0.2346 54,0.2347 10.5,1.2157 10.5,1.2156 2.0499,1.2929 2.0499,1.293 7.3386,1.1386 7.3387,1.1386 2.6115,1.8551 2.6114,1.855 6.5,2.7307 6.5,2.7306 7.9345,3.9877 7.9345,3.9877 3.5655,2.2287 3.5655,2.2288 3.2942,1.1307 3.2943,1.1307 2.7057,1.9156 2.7058,1.9156 7.3321,3.1114 7.3322,3.1114 2.6678,1.8599 2.6679,1.8599 4.9398,1.6536 4.9397,1.6537 2.0603,1.8311 2.0602,1.8311 5.5,2.279 5.5,2.2791 8,4.2443 8,4.2444 5.1176,1.2095 5.1176,1.2096 12.0525,-1.568 12.0524,-1.568 10.83,0.01 10.8299,0.01 11.5,1.4909 11.5,1.4909 6.5,0.5486 6.5,0.5486 8,1.5297 8,1.5297 19.1013,-2.5783 19.1013,-2.5782 9.3987,-0.031 9.3987,-0.031 7.5,-1.0776 7.5,-1.0777 66.5,0.1822 66.5,0.1823 15.5,1.9145 15.5,1.9145 3.8461,0.012 3.8461,0.012 5.484,1.5943 5.4841,1.5942 11.6698,-1.5633 11.6699,-1.5633 8.409,-1.031 8.409,-1.0309 9.091,-0.02 9.091,-0.02 6.5,-1.0557 6.5,-1.0557 68,0.1355 68,0.1356 7,0.9851 7,0.9851 12.5,1.4576 12.5,1.4575 5.2016,1.1459 5.2017,1.1459 11.2983,-1.604 11.2984,-1.6041 8,-1.0508 8,-1.0509 h 10 10 l 8.5,-1.3018 8.5,-1.3019 59.5,0.6577 59.5,0.6577 -62,0.043 -62,0.043 -6,1.099 -6,1.099 -10,-8e-4 -10,-8e-4 -8,1.0509 -8,1.0508 -11.2984,1.6041 -11.2983,1.604 -5.2017,-1.1459 -5.2016,-1.1459 -12.5,-1.4575 -12.5,-1.4576 -7,-0.9851 -7,-0.9851 -68,-0.1356 -68,-0.1355 -6.5,1.0557 -6.5,1.0557 -9.091,0.02 -9.091,0.02 -8.409,1.0309 -8.409,1.031 -11.6699,1.5633 -11.6698,1.5633 -5.4841,-1.5942 -5.484,-1.5943 -3.8461,-0.012 -3.8461,-0.012 -15.5,-1.9145 -15.5,-1.9145 -66.5,-0.1823 -66.5,-0.1822 -7.5,1.0777 -7.5,1.0776 -9.3987,0.031 -9.3987,0.031 -19.1013,2.5782 -19.1013,2.5783 -8,-1.5297 -8,-1.5297 -6.5,-0.5486 -6.5,-0.5486 -11.5,-1.4909 -11.5,-1.4909 -10.8299,-0.01 -10.83,-0.01 -12.0524,1.568 -12.0525,1.568 -5.1176,-1.2096 -5.1176,-1.2095 -8,-4.2444 -8,-4.2443 -5.5,-2.2791 -5.5,-2.279 -2.0602,-1.8311 -2.0603,-1.8311 -4.9397,-1.6537 -4.9398,-1.6536 -2.6679,-1.8599 -2.6678,-1.8599 -7.3322,-3.1114 -7.3321,-3.1114 -2.7058,-1.9156 -2.7057,-1.9156 -3.2943,-1.1307 -3.2942,-1.1307 -3.5655,-2.2288 -3.5655,-2.2287 -7.9345,-3.9877 -7.9345,-3.9877 -6.5,-2.7306 -6.5,-2.7307 -2.6114,-1.855 -2.6115,-1.8551 -7.3387,-1.1386 -7.3386,-1.1386 -2.0499,-1.293 -2.0499,-1.2929 -10.5,-1.2156 -10.5,-1.2157 -54,-0.2347 -54,-0.2346 -28,3.5181 -28,3.5182 -28.5,-0.017 -28.5,-0.017 -24.3974,-3.1502 -24.3974,-3.1502 H 8693.8526 8641 l -0.2402,63.75 -0.2401,63.75 -0.2695,-48.25 -0.2694,-48.25 -1.2404,-0.028 -1.2404,-0.028 -22.1632,2.7478 -22.1632,2.7478 -16.8368,-1.8349 -16.8368,-1.8349 -1.1728,-0.9435 -1.1728,-0.9434 -6.0772,0.6876 -6.0772,0.6875 -0.2357,47.6209 -0.2356,47.6208 -0.2784,-32.3885 -0.2784,-32.3884 -5.2359,0.5856 -5.236,0.5856 -16,2.041 -16,2.0411 -5.4574,0.012 -5.4574,0.012 -12.5426,-1.557 -12.5426,-1.5571 -1.5,-0.6126 -1.5,-0.6126 -17.5,-0.168 -17.5,-0.1681 -27.5,3.4198 -27.5,3.4198 -28,0.097 -28,0.097 -21,-2.906 -21,-2.9061 -180,-0.5233 -180,-0.5234 -14.5,1.7937 -14.5,1.7936 -17.7707,0.4488 -17.7707,0.4488 -15.7293,-2.1924 -15.7293,-2.1923 -15,-0.149 -15,-0.1491 -15.5,1.937 -15.5,1.937 -17,0.4153 -17,0.4153 -14,-1.6016 -14,-1.6015 -1,-0.6518 -1,-0.6518 h -6 -6 l -0.5209,32 z"
       id="path22" />
  </g>
</svg>
